<mxfile host="app.diagrams.net" modified="2021-09-10T03:42:27.496Z" agent="5.0 (Windows NT 10.0; Win64; x64) AppleWebKit/537.36 (KHTML, like Gecko) Chrome/91.0.4472.77 Safari/537.36" etag="d0hKr-3vinYtNFdf5MUo" version="15.1.4" type="github">
  <diagram id="-1qST2PT7YDvNmCzR2n3" name="Page-1">
    <mxGraphModel dx="1422" dy="762" grid="1" gridSize="10" guides="1" tooltips="1" connect="1" arrows="1" fold="1" page="1" pageScale="1" pageWidth="827" pageHeight="1169" math="0" shadow="0">
      <root>
        <mxCell id="0" />
        <mxCell id="1" parent="0" />
        <mxCell id="niSYp5rJRPZFxIQViTU1-1" value="&lt;font style=&quot;font-size: 10px&quot;&gt;http_sevice_lungnodule.py&lt;/font&gt;" style="rounded=0;whiteSpace=wrap;html=1;" vertex="1" parent="1">
          <mxGeometry x="220" y="90" width="160" height="60" as="geometry" />
        </mxCell>
        <mxCell id="niSYp5rJRPZFxIQViTU1-2" value="" style="endArrow=classic;html=1;entryX=0;entryY=0.25;entryDx=0;entryDy=0;" edge="1" parent="1" target="niSYp5rJRPZFxIQViTU1-1">
          <mxGeometry width="50" height="50" relative="1" as="geometry">
            <mxPoint x="100" y="105" as="sourcePoint" />
            <mxPoint x="160" y="95" as="targetPoint" />
          </mxGeometry>
        </mxCell>
        <mxCell id="niSYp5rJRPZFxIQViTU1-3" value="data base" style="shape=cylinder3;whiteSpace=wrap;html=1;boundedLbl=1;backgroundOutline=1;size=15;" vertex="1" parent="1">
          <mxGeometry x="40" y="70" width="60" height="80" as="geometry" />
        </mxCell>
        <mxCell id="niSYp5rJRPZFxIQViTU1-4" value="" style="endArrow=classic;html=1;entryX=1;entryY=1;entryDx=0;entryDy=-15;entryPerimeter=0;exitX=0;exitY=0.75;exitDx=0;exitDy=0;" edge="1" parent="1" source="niSYp5rJRPZFxIQViTU1-1" target="niSYp5rJRPZFxIQViTU1-3">
          <mxGeometry width="50" height="50" relative="1" as="geometry">
            <mxPoint x="190" y="135" as="sourcePoint" />
            <mxPoint x="140" y="140" as="targetPoint" />
          </mxGeometry>
        </mxCell>
        <mxCell id="niSYp5rJRPZFxIQViTU1-5" value="识别请求" style="text;html=1;strokeColor=none;fillColor=none;align=center;verticalAlign=middle;whiteSpace=wrap;rounded=0;" vertex="1" parent="1">
          <mxGeometry x="120" y="80" width="60" height="20" as="geometry" />
        </mxCell>
        <mxCell id="niSYp5rJRPZFxIQViTU1-6" value="请求确认" style="text;html=1;strokeColor=none;fillColor=none;align=center;verticalAlign=middle;whiteSpace=wrap;rounded=0;" vertex="1" parent="1">
          <mxGeometry x="120" y="140" width="60" height="20" as="geometry" />
        </mxCell>
        <mxCell id="niSYp5rJRPZFxIQViTU1-7" value="任务调度器&lt;br&gt;taskmanager/mainProcess.py" style="whiteSpace=wrap;html=1;aspect=fixed;" vertex="1" parent="1">
          <mxGeometry x="260" y="210" width="80" height="80" as="geometry" />
        </mxCell>
        <mxCell id="niSYp5rJRPZFxIQViTU1-8" value="" style="shape=flexArrow;endArrow=classic;html=1;exitX=0.5;exitY=1;exitDx=0;exitDy=0;" edge="1" parent="1" source="niSYp5rJRPZFxIQViTU1-1" target="niSYp5rJRPZFxIQViTU1-7">
          <mxGeometry width="50" height="50" relative="1" as="geometry">
            <mxPoint x="430" y="400" as="sourcePoint" />
            <mxPoint x="480" y="350" as="targetPoint" />
          </mxGeometry>
        </mxCell>
        <mxCell id="niSYp5rJRPZFxIQViTU1-9" value="数据地址传输到任务调度器&lt;br&gt;" style="text;html=1;strokeColor=none;fillColor=none;align=center;verticalAlign=middle;whiteSpace=wrap;rounded=0;" vertex="1" parent="1">
          <mxGeometry x="300" y="170" width="120" height="20" as="geometry" />
        </mxCell>
        <mxCell id="niSYp5rJRPZFxIQViTU1-10" value="肺结节模型&lt;br&gt;lessionClasses/&lt;br&gt;lungNodule.py" style="ellipse;whiteSpace=wrap;html=1;" vertex="1" parent="1">
          <mxGeometry x="190" y="330" width="120" height="80" as="geometry" />
        </mxCell>
        <mxCell id="niSYp5rJRPZFxIQViTU1-11" value="纵隔模型&lt;br&gt;lessionClass/es/&lt;span class=&quot;file-title-name gl-word-break-all&quot; style=&quot;box-sizing: border-box ; word-break: break-all ; color: rgb(48 , 48 , 48) ; font-family: , &amp;#34;blinkmacsystemfont&amp;#34; , &amp;#34;segoe ui&amp;#34; , &amp;#34;roboto&amp;#34; , &amp;#34;noto sans&amp;#34; , &amp;#34;ubuntu&amp;#34; , &amp;#34;cantarell&amp;#34; , &amp;#34;helvetica neue&amp;#34; , sans-serif , &amp;#34;apple color emoji&amp;#34; , &amp;#34;segoe ui emoji&amp;#34; , &amp;#34;segoe ui symbol&amp;#34; , &amp;#34;noto color emoji&amp;#34; ; text-align: left ; background-color: rgb(250 , 250 , 250)&quot;&gt;&lt;font style=&quot;font-size: 12px&quot;&gt;Mediastinum.py&lt;/font&gt;&lt;/span&gt;" style="ellipse;whiteSpace=wrap;html=1;" vertex="1" parent="1">
          <mxGeometry x="240" y="330" width="120" height="80" as="geometry" />
        </mxCell>
        <mxCell id="niSYp5rJRPZFxIQViTU1-12" value="肺结核模型&lt;br&gt;lessionClasses/TB.py" style="ellipse;whiteSpace=wrap;html=1;" vertex="1" parent="1">
          <mxGeometry x="300" y="330" width="120" height="80" as="geometry" />
        </mxCell>
        <mxCell id="niSYp5rJRPZFxIQViTU1-13" value="" style="endArrow=classic;html=1;exitX=0.5;exitY=1;exitDx=0;exitDy=0;entryX=0.5;entryY=0;entryDx=0;entryDy=0;" edge="1" parent="1" source="niSYp5rJRPZFxIQViTU1-7" target="niSYp5rJRPZFxIQViTU1-11">
          <mxGeometry width="50" height="50" relative="1" as="geometry">
            <mxPoint x="340" y="370" as="sourcePoint" />
            <mxPoint x="390" y="320" as="targetPoint" />
          </mxGeometry>
        </mxCell>
        <mxCell id="niSYp5rJRPZFxIQViTU1-14" value="" style="endArrow=classic;html=1;entryX=0.425;entryY=0.013;entryDx=0;entryDy=0;entryPerimeter=0;" edge="1" parent="1" target="niSYp5rJRPZFxIQViTU1-10">
          <mxGeometry width="50" height="50" relative="1" as="geometry">
            <mxPoint x="300" y="290" as="sourcePoint" />
            <mxPoint x="310" y="340" as="targetPoint" />
          </mxGeometry>
        </mxCell>
        <mxCell id="niSYp5rJRPZFxIQViTU1-15" value="" style="endArrow=classic;html=1;exitX=0.5;exitY=1;exitDx=0;exitDy=0;entryX=0.5;entryY=0;entryDx=0;entryDy=0;" edge="1" parent="1" source="niSYp5rJRPZFxIQViTU1-7" target="niSYp5rJRPZFxIQViTU1-12">
          <mxGeometry width="50" height="50" relative="1" as="geometry">
            <mxPoint x="320" y="310" as="sourcePoint" />
            <mxPoint x="320" y="350" as="targetPoint" />
          </mxGeometry>
        </mxCell>
        <mxCell id="niSYp5rJRPZFxIQViTU1-16" value="计算资源后并行任务分配" style="text;html=1;strokeColor=none;fillColor=none;align=center;verticalAlign=middle;whiteSpace=wrap;rounded=0;" vertex="1" parent="1">
          <mxGeometry x="330" y="300" width="180" height="20" as="geometry" />
        </mxCell>
        <mxCell id="niSYp5rJRPZFxIQViTU1-17" value="" style="endArrow=classic;html=1;exitX=0.5;exitY=1;exitDx=0;exitDy=0;entryX=0.5;entryY=0;entryDx=0;entryDy=0;" edge="1" parent="1" source="niSYp5rJRPZFxIQViTU1-10" target="niSYp5rJRPZFxIQViTU1-19">
          <mxGeometry width="50" height="50" relative="1" as="geometry">
            <mxPoint x="250" y="470" as="sourcePoint" />
            <mxPoint x="300" y="500" as="targetPoint" />
          </mxGeometry>
        </mxCell>
        <mxCell id="niSYp5rJRPZFxIQViTU1-18" value="" style="endArrow=classic;html=1;exitX=0.5;exitY=1;exitDx=0;exitDy=0;entryX=0.5;entryY=0;entryDx=0;entryDy=0;" edge="1" parent="1" source="niSYp5rJRPZFxIQViTU1-11" target="niSYp5rJRPZFxIQViTU1-19">
          <mxGeometry width="50" height="50" relative="1" as="geometry">
            <mxPoint x="340" y="350" as="sourcePoint" />
            <mxPoint x="300" y="510" as="targetPoint" />
          </mxGeometry>
        </mxCell>
        <mxCell id="niSYp5rJRPZFxIQViTU1-19" value="结果收集器，接口处理后传输&lt;br&gt;taskmanager/&lt;br&gt;mainProcess.py" style="whiteSpace=wrap;html=1;aspect=fixed;" vertex="1" parent="1">
          <mxGeometry x="250" y="470" width="100" height="100" as="geometry" />
        </mxCell>
        <mxCell id="niSYp5rJRPZFxIQViTU1-20" value="" style="endArrow=classic;html=1;exitX=0.5;exitY=1;exitDx=0;exitDy=0;entryX=0.5;entryY=0;entryDx=0;entryDy=0;" edge="1" parent="1" source="niSYp5rJRPZFxIQViTU1-12" target="niSYp5rJRPZFxIQViTU1-19">
          <mxGeometry width="50" height="50" relative="1" as="geometry">
            <mxPoint x="340" y="350" as="sourcePoint" />
            <mxPoint x="390" y="300" as="targetPoint" />
          </mxGeometry>
        </mxCell>
        <mxCell id="niSYp5rJRPZFxIQViTU1-21" value="接口包装后回传&lt;br&gt;http" style="rounded=0;whiteSpace=wrap;html=1;" vertex="1" parent="1">
          <mxGeometry x="240" y="600" width="120" height="60" as="geometry" />
        </mxCell>
        <mxCell id="niSYp5rJRPZFxIQViTU1-22" value="" style="endArrow=classic;html=1;exitX=0.5;exitY=1;exitDx=0;exitDy=0;entryX=0.5;entryY=0;entryDx=0;entryDy=0;" edge="1" parent="1" source="niSYp5rJRPZFxIQViTU1-19" target="niSYp5rJRPZFxIQViTU1-21">
          <mxGeometry width="50" height="50" relative="1" as="geometry">
            <mxPoint x="340" y="340" as="sourcePoint" />
            <mxPoint x="390" y="290" as="targetPoint" />
          </mxGeometry>
        </mxCell>
        <mxCell id="niSYp5rJRPZFxIQViTU1-23" value="。。。" style="text;html=1;strokeColor=none;fillColor=none;align=center;verticalAlign=middle;whiteSpace=wrap;rounded=0;" vertex="1" parent="1">
          <mxGeometry x="420" y="360" width="40" height="20" as="geometry" />
        </mxCell>
        <mxCell id="niSYp5rJRPZFxIQViTU1-24" value="" style="endArrow=classic;html=1;entryX=0.5;entryY=1;entryDx=0;entryDy=0;entryPerimeter=0;exitX=0;exitY=0.5;exitDx=0;exitDy=0;" edge="1" parent="1" source="niSYp5rJRPZFxIQViTU1-21" target="niSYp5rJRPZFxIQViTU1-3">
          <mxGeometry width="50" height="50" relative="1" as="geometry">
            <mxPoint x="125" y="610" as="sourcePoint" />
            <mxPoint x="175" y="560" as="targetPoint" />
          </mxGeometry>
        </mxCell>
        <mxCell id="niSYp5rJRPZFxIQViTU1-25" value="结果回传" style="text;html=1;strokeColor=none;fillColor=none;align=center;verticalAlign=middle;whiteSpace=wrap;rounded=0;" vertex="1" parent="1">
          <mxGeometry x="90" y="290" width="50" height="20" as="geometry" />
        </mxCell>
      </root>
    </mxGraphModel>
  </diagram>
</mxfile>
